<mxfile host="app.diagrams.net" agent="Mozilla/5.0 (Windows NT 10.0; Win64; x64) AppleWebKit/537.36 (KHTML, like Gecko) Chrome/127.0.0.0 Safari/537.36" version="24.7.6">
  <diagram name="Página-1" id="atdG8ohcdvDfDPcMApmX">
    <mxGraphModel dx="1366" dy="710" grid="1" gridSize="10" guides="1" tooltips="1" connect="1" arrows="1" fold="1" page="1" pageScale="1" pageWidth="827" pageHeight="1169" math="0" shadow="0">
      <root>
        <mxCell id="0" />
        <mxCell id="1" parent="0" />
        <mxCell id="cWHeuqcrtyf5T2U7pJGe-2" value="Inicio" style="ellipse;whiteSpace=wrap;html=1;" vertex="1" parent="1">
          <mxGeometry x="177.5" y="90" width="120" height="80" as="geometry" />
        </mxCell>
        <mxCell id="cWHeuqcrtyf5T2U7pJGe-3" value="Fim" style="ellipse;whiteSpace=wrap;html=1;" vertex="1" parent="1">
          <mxGeometry x="177.5" y="570" width="120" height="80" as="geometry" />
        </mxCell>
        <mxCell id="cWHeuqcrtyf5T2U7pJGe-12" style="edgeStyle=orthogonalEdgeStyle;rounded=0;orthogonalLoop=1;jettySize=auto;html=1;entryX=0.5;entryY=0;entryDx=0;entryDy=0;" edge="1" parent="1" source="cWHeuqcrtyf5T2U7pJGe-4" target="cWHeuqcrtyf5T2U7pJGe-5">
          <mxGeometry relative="1" as="geometry" />
        </mxCell>
        <mxCell id="cWHeuqcrtyf5T2U7pJGe-4" value="n1, n2" style="shape=manualInput;whiteSpace=wrap;html=1;" vertex="1" parent="1">
          <mxGeometry x="167.5" y="210" width="140" height="80" as="geometry" />
        </mxCell>
        <mxCell id="cWHeuqcrtyf5T2U7pJGe-13" style="edgeStyle=orthogonalEdgeStyle;rounded=0;orthogonalLoop=1;jettySize=auto;html=1;" edge="1" parent="1" source="cWHeuqcrtyf5T2U7pJGe-5" target="cWHeuqcrtyf5T2U7pJGe-6">
          <mxGeometry relative="1" as="geometry" />
        </mxCell>
        <mxCell id="cWHeuqcrtyf5T2U7pJGe-5" value="resultado &amp;lt;- n1 - n2" style="rounded=0;whiteSpace=wrap;html=1;" vertex="1" parent="1">
          <mxGeometry x="152.5" y="330" width="170" height="60" as="geometry" />
        </mxCell>
        <mxCell id="cWHeuqcrtyf5T2U7pJGe-14" style="edgeStyle=orthogonalEdgeStyle;rounded=0;orthogonalLoop=1;jettySize=auto;html=1;" edge="1" parent="1" source="cWHeuqcrtyf5T2U7pJGe-6" target="cWHeuqcrtyf5T2U7pJGe-3">
          <mxGeometry relative="1" as="geometry" />
        </mxCell>
        <mxCell id="cWHeuqcrtyf5T2U7pJGe-6" value="&quot;Resultado da Subtração&quot; , resultado" style="shape=display;whiteSpace=wrap;html=1;" vertex="1" parent="1">
          <mxGeometry x="120" y="430" width="235" height="90" as="geometry" />
        </mxCell>
        <mxCell id="cWHeuqcrtyf5T2U7pJGe-15" value="Programa Subtracao" style="text;html=1;align=center;verticalAlign=middle;whiteSpace=wrap;rounded=0;" vertex="1" parent="1">
          <mxGeometry x="440" y="100" width="130" height="30" as="geometry" />
        </mxCell>
        <mxCell id="cWHeuqcrtyf5T2U7pJGe-16" value="var n1, n2, resultado: real" style="text;html=1;align=center;verticalAlign=middle;whiteSpace=wrap;rounded=0;" vertex="1" parent="1">
          <mxGeometry x="460" y="130" width="190" height="30" as="geometry" />
        </mxCell>
        <mxCell id="cWHeuqcrtyf5T2U7pJGe-17" value="Inicio" style="text;html=1;align=center;verticalAlign=middle;whiteSpace=wrap;rounded=0;" vertex="1" parent="1">
          <mxGeometry x="440" y="160" width="60" height="30" as="geometry" />
        </mxCell>
        <mxCell id="cWHeuqcrtyf5T2U7pJGe-19" value="leia(n1)" style="text;html=1;align=center;verticalAlign=middle;whiteSpace=wrap;rounded=0;" vertex="1" parent="1">
          <mxGeometry x="456" y="180" width="60" height="30" as="geometry" />
        </mxCell>
        <mxCell id="cWHeuqcrtyf5T2U7pJGe-20" value="leia(n2)" style="text;html=1;align=center;verticalAlign=middle;whiteSpace=wrap;rounded=0;" vertex="1" parent="1">
          <mxGeometry x="457" y="200" width="60" height="30" as="geometry" />
        </mxCell>
        <mxCell id="cWHeuqcrtyf5T2U7pJGe-21" value="resultado &amp;lt;- n1 - n2" style="text;html=1;align=center;verticalAlign=middle;whiteSpace=wrap;rounded=0;" vertex="1" parent="1">
          <mxGeometry x="456" y="220" width="126" height="30" as="geometry" />
        </mxCell>
        <mxCell id="cWHeuqcrtyf5T2U7pJGe-22" value="escreva(&quot;Resultado da Subtração = &quot;, resultado)" style="text;html=1;align=center;verticalAlign=middle;whiteSpace=wrap;rounded=0;" vertex="1" parent="1">
          <mxGeometry x="449" y="240" width="290" height="30" as="geometry" />
        </mxCell>
        <mxCell id="cWHeuqcrtyf5T2U7pJGe-23" value="Fim" style="text;html=1;align=center;verticalAlign=middle;whiteSpace=wrap;rounded=0;" vertex="1" parent="1">
          <mxGeometry x="440" y="263" width="60" height="30" as="geometry" />
        </mxCell>
        <mxCell id="cWHeuqcrtyf5T2U7pJGe-25" style="edgeStyle=orthogonalEdgeStyle;rounded=0;orthogonalLoop=1;jettySize=auto;html=1;entryX=0.496;entryY=0.213;entryDx=0;entryDy=0;entryPerimeter=0;" edge="1" parent="1" source="cWHeuqcrtyf5T2U7pJGe-2" target="cWHeuqcrtyf5T2U7pJGe-4">
          <mxGeometry relative="1" as="geometry" />
        </mxCell>
      </root>
    </mxGraphModel>
  </diagram>
</mxfile>
